<svg width="28" height="28" viewBox="0 0 28 28" fill="none" xmlns="http://www.w3.org/2000/svg">
<path d="M22.1213 4.28871L23.7071 5.8745C24.8787 7.04607 24.8787 8.94557 23.7071 10.1171L21 12.8242L10.1464 23.6779C9.30249 24.5218 8.15794 24.9958 6.96451 24.9958H5.05C3.91782 24.9958 3 24.078 3 22.9458V21.0314C3 19.8379 3.47414 18.6932 4.31811 17.8493L15.172 6.99603L15.1716 6.99582L17.8787 4.28871C19.0503 3.11714 20.9497 3.11714 22.1213 4.28871ZM16.5 8.49648L5.73228 19.2636C5.26341 19.7324 5 20.3683 5 21.0314V22.9458C5 22.9734 5.02239 22.9958 5.05 22.9958H6.96451C7.62752 22.9958 8.26339 22.7324 8.73222 22.2636L19.5 11.4965L16.5 8.49648ZM19.2929 5.70293L18 6.99582L21 9.99582L22.2929 8.70293C22.6834 8.3124 22.6834 7.67924 22.2929 7.28871L20.7071 5.70293C20.3166 5.3124 19.6834 5.3124 19.2929 5.70293Z" fill="#3F8AE0"/>
</svg>
