<svg width="24" height="24" viewBox="0 0 24 24" fill="none" xmlns="http://www.w3.org/2000/svg">
<path d="M24 12C24 18.6274 18.6274 24 12 24C5.37258 24 0 18.6274 0 12C0 5.37258 5.37258 0 12 0C18.6274 0 24 5.37258 24 12Z" fill="#E64646"/>
<path d="M8.31316 7.2253C8.01276 6.9249 7.52571 6.9249 7.2253 7.2253C6.9249 7.52571 6.9249 8.01276 7.2253 8.31316L10.9121 12L7.2253 15.6868C6.9249 15.9872 6.9249 16.4743 7.2253 16.7747C7.52571 17.0751 8.01276 17.0751 8.31316 16.7747L12 13.0879L15.6868 16.7747C15.9872 17.0751 16.4743 17.0751 16.7747 16.7747C17.0751 16.4743 17.0751 15.9872 16.7747 15.6868L13.0879 12L16.7747 8.31316C17.0751 8.01276 17.0751 7.52571 16.7747 7.2253C16.4743 6.9249 15.9872 6.9249 15.6868 7.2253L12 10.9121L8.31316 7.2253Z" fill="white"/>
</svg>
