<svg width="29" height="28" viewBox="0 0 29 28" fill="none" xmlns="http://www.w3.org/2000/svg">
<path d="M9.46036 14.9999C10.5257 14.9999 11.0839 15.1077 11.6653 15.4187C12.2062 15.708 12.6367 16.1385 12.926 16.6794C13.2369 17.2608 13.3447 17.8189 13.3447 18.8843V21.1156C13.3447 22.181 13.2369 22.7391 12.926 23.3205C12.6367 23.8614 12.2062 24.2919 11.6653 24.5812C11.0839 24.8922 10.5257 24.9999 9.46036 24.9999H7.2291C6.16371 24.9999 5.60556 24.8922 5.02418 24.5812C4.48324 24.2919 4.05273 23.8614 3.76344 23.3205C3.45251 22.7391 3.34473 22.181 3.34473 21.1156V18.8843C3.34473 17.8189 3.45251 17.2608 3.76344 16.6794C4.05273 16.1385 4.48324 15.708 5.02418 15.4187C5.60556 15.1077 6.16371 14.9999 7.2291 14.9999H9.46036ZM21.4604 14.9999C22.5257 14.9999 23.0839 15.1077 23.6653 15.4187C24.2062 15.708 24.6367 16.1385 24.926 16.6794C25.2369 17.2608 25.3447 17.8189 25.3447 18.8843V21.1156C25.3447 22.181 25.2369 22.7391 24.926 23.3205C24.6367 23.8614 24.2062 24.2919 23.6653 24.5812C23.0839 24.8922 22.5257 24.9999 21.4604 24.9999H19.2291C18.1637 24.9999 17.6056 24.8922 17.0242 24.5812C16.4832 24.2919 16.0527 23.8614 15.7634 23.3205C15.4525 22.7391 15.3447 22.181 15.3447 21.1156V18.8843C15.3447 17.8189 15.4525 17.2608 15.7634 16.6794C16.0527 16.1385 16.4832 15.708 17.0242 15.4187C17.6056 15.1077 18.1637 14.9999 19.2291 14.9999H21.4604ZM9.46036 16.9999H7.2291C6.46564 16.9999 6.2194 17.0475 5.96737 17.1823C5.77498 17.2852 5.62996 17.4302 5.52706 17.6226C5.39228 17.8746 5.34473 18.1209 5.34473 18.8843V21.1156C5.34473 21.879 5.39228 22.1253 5.52706 22.3773C5.62996 22.5697 5.77498 22.7147 5.96737 22.8176C6.2194 22.9524 6.46564 22.9999 7.2291 22.9999H9.46036C10.2238 22.9999 10.4701 22.9524 10.7221 22.8176C10.9145 22.7147 11.0595 22.5697 11.1624 22.3773C11.2972 22.1253 11.3447 21.879 11.3447 21.1156V18.8843C11.3447 18.1209 11.2972 17.8746 11.1624 17.6226C11.0595 17.4302 10.9145 17.2852 10.7221 17.1823C10.4701 17.0475 10.2238 16.9999 9.46036 16.9999ZM21.4604 16.9999H19.2291C18.4656 16.9999 18.2194 17.0475 17.9674 17.1823C17.775 17.2852 17.63 17.4302 17.5271 17.6226C17.3923 17.8746 17.3447 18.1209 17.3447 18.8843V21.1156C17.3447 21.879 17.3923 22.1253 17.5271 22.3773C17.63 22.5697 17.775 22.7147 17.9674 22.8176C18.2194 22.9524 18.4656 22.9999 19.2291 22.9999H21.4604C22.2238 22.9999 22.4701 22.9524 22.7221 22.8176C22.9145 22.7147 23.0595 22.5697 23.1624 22.3773C23.2972 22.1253 23.3447 21.879 23.3447 21.1156V18.8843C23.3447 18.1209 23.2972 17.8746 23.1624 17.6226C23.0595 17.4302 22.9145 17.2852 22.7221 17.1823C22.4701 17.0475 22.2238 16.9999 21.4604 16.9999ZM21.2362 2.4125C21.8672 2.60375 22.3381 2.92221 23.0914 3.67555L24.6691 5.25328C25.4225 6.00662 25.7409 6.47752 25.9322 7.10847C26.1101 7.69553 26.1101 8.30436 25.9322 8.89143C25.7409 9.52238 25.4225 9.99327 24.6691 10.7466L23.0914 12.3244C22.3381 13.0777 21.8672 13.3962 21.2362 13.5874C20.6491 13.7653 20.0403 13.7653 19.4532 13.5874C18.8223 13.3962 18.3514 13.0777 17.5981 12.3244L16.0203 10.7466C15.267 9.99327 14.9485 9.52238 14.7573 8.89143C14.5793 8.30436 14.5793 7.69553 14.7573 7.10847C14.9485 6.47752 15.267 6.00662 16.0203 5.25328L17.5981 3.67555C18.3514 2.92221 18.8223 2.60375 19.4532 2.4125C20.0403 2.23457 20.6491 2.23457 21.2362 2.4125ZM9.46036 2.99995C10.5257 2.99995 11.0839 3.10773 11.6653 3.41866C12.2062 3.70796 12.6367 4.13846 12.926 4.6794C13.2369 5.26078 13.3447 5.81894 13.3447 6.88432V9.11558C13.3447 10.181 13.2369 10.7391 12.926 11.3205C12.6367 11.8614 12.2062 12.2919 11.6653 12.5812C11.0839 12.8922 10.5257 12.9999 9.46036 12.9999H7.2291C6.16371 12.9999 5.60556 12.8922 5.02418 12.5812C4.48324 12.2919 4.05273 11.8614 3.76344 11.3205C3.45251 10.7391 3.34473 10.181 3.34473 9.11558V6.88432C3.34473 5.81894 3.45251 5.26078 3.76344 4.6794C4.05273 4.13846 4.48324 3.70796 5.02418 3.41866C5.60556 3.10773 6.16371 2.99995 7.2291 2.99995H9.46036ZM20.0334 4.32652C19.7599 4.40942 19.5521 4.54992 19.0123 5.08976L17.4345 6.6675C16.8947 7.20734 16.7542 7.41508 16.6713 7.6886C16.608 7.89741 16.608 8.10249 16.6713 8.3113C16.7542 8.58481 16.8947 8.79256 17.4345 9.3324L19.0123 10.9101C19.5521 11.45 19.7599 11.5905 20.0334 11.6734C20.2422 11.7367 20.4473 11.7367 20.6561 11.6734C20.9296 11.5905 21.1373 11.45 21.6772 10.9101L23.2549 9.3324C23.7948 8.79256 23.9353 8.58481 24.0182 8.3113C24.0814 8.10249 24.0814 7.89741 24.0182 7.6886C23.9353 7.41508 23.7948 7.20734 23.2549 6.6675L21.6772 5.08976C21.1373 4.54992 20.9296 4.40942 20.6561 4.32652C20.4473 4.26323 20.2422 4.26323 20.0334 4.32652ZM9.46036 4.99995H7.2291C6.46564 4.99995 6.2194 5.0475 5.96737 5.18229C5.77498 5.28518 5.62996 5.4302 5.52706 5.6226C5.39228 5.87462 5.34473 6.12087 5.34473 6.88432V9.11558C5.34473 9.87903 5.39228 10.1253 5.52706 10.3773C5.62996 10.5697 5.77498 10.7147 5.96737 10.8176C6.2194 10.9524 6.46564 10.9999 7.2291 10.9999H9.46036C10.2238 10.9999 10.4701 10.9524 10.7221 10.8176C10.9145 10.7147 11.0595 10.5697 11.1624 10.3773C11.2972 10.1253 11.3447 9.87903 11.3447 9.11558V6.88432C11.3447 6.12087 11.2972 5.87462 11.1624 5.6226C11.0595 5.4302 10.9145 5.28518 10.7221 5.18229C10.4701 5.0475 10.2238 4.99995 9.46036 4.99995Z" fill="#99A2AD"/>
</svg>
