<svg width="30" height="28" viewBox="0 0 30 28" fill="none" xmlns="http://www.w3.org/2000/svg">
<path d="M15.3105 2C21.938 2 27.3105 7.37258 27.3105 14C27.3105 20.6274 21.938 26 15.3105 26C8.68313 26 3.31055 20.6274 3.31055 14C3.31055 7.37258 8.68313 2 15.3105 2ZM15.3105 20.5C13.2246 20.5 11.2306 21.082 9.51376 22.149C11.1487 23.3146 13.1496 24 15.3105 24C17.4711 24 19.4716 23.3148 21.1066 22.15C19.39 21.0818 17.3962 20.5 15.3105 20.5ZM15.3105 4C9.7877 4 5.31055 8.47715 5.31055 14C5.31055 16.6157 6.3148 18.9968 7.95878 20.7788C10.0962 19.3082 12.6415 18.5 15.3105 18.5C17.9798 18.5 20.5255 19.3084 22.6632 20.7774C24.3067 18.9959 25.3105 16.6152 25.3105 14C25.3105 8.47715 20.8334 4 15.3105 4ZM15.3105 7.5C17.9347 7.5 20.0605 9.62584 20.0605 12.25C20.0605 14.8742 17.9347 17 15.3105 17C12.6864 17 10.5605 14.8742 10.5605 12.25C10.5605 9.62584 12.6864 7.5 15.3105 7.5ZM15.3105 9.5C13.791 9.5 12.5605 10.7304 12.5605 12.25C12.5605 13.7696 13.791 15 15.3105 15C16.8301 15 18.0605 13.7696 18.0605 12.25C18.0605 10.7304 16.8301 9.5 15.3105 9.5Z" fill="#99A2AD"/>
</svg>
