<svg width="24" height="24" viewBox="0 0 24 24" fill="none" xmlns="http://www.w3.org/2000/svg">
<path d="M12 24C5.37258 24 0 18.6274 0 12C0 5.37258 5.37258 0 12 0C18.6274 0 24 5.37258 24 12C23.9927 18.6244 18.6244 23.9927 12 24ZM12 15.6C11.3373 15.6 10.8 16.1373 10.8 16.8V16.8C10.8 17.4627 11.3373 18 12 18V18C12.6627 18 13.2 17.4627 13.2 16.8V16.8C13.2 16.1373 12.6627 15.6 12 15.6V15.6ZM12 6C11.3373 6 10.8 6.53726 10.8 7.2V12C10.8 12.6627 11.3373 13.2 12 13.2V13.2C12.6627 13.2 13.2 12.6627 13.2 12V7.2C13.2 6.53726 12.6627 6 12 6V6Z" fill="#FFC149"/>
</svg>
